<svg xmlns="http://www.w3.org/2000/svg" viewBox="0 0 50 57.65"><path fill="#399" d="M33.431 14.366v.022l8.145 4.704.034-.022V9.667l-.018-.013zm16.32.002l-7.969-4.6v9.202zm-24.87-4.916l.035-.018V.028l-.03-.016-8.142 4.699v.042zM.043 14.588v9.205l7.97-4.602zM25.09 28.813v.035l8.137 4.699.032-.012v-9.409l-.032-.015zm16.486 9.754l-8.145 4.707v.019l8.161 4.713.018-.019v-9.401zm-33.18.119v9.201l7.963-4.601zm33.386-10.079l7.965-4.598-7.965-4.596zM.043 24.22v9.221l7.985-4.61zm33.388 9.209l7.967-4.602-7.967-4.598zm-25.21-4.716v-9.401l-.033-.02-8.145 4.704v.022l8.158 4.711zM.043 33.866v9.201l7.97-4.593zm16.701 9.64v9.199l7.963-4.6zm25.038-5.264l7.969-4.594-7.969-4.597zm0 9.651l7.969-4.6-7.969-4.607zm-8.351 4.82l7.983-4.608-7.983-4.613zm8.351-33.541v.04l8.145 4.696.03-.021v-9.399l-.027-.019zm-8.523 24.226l-.023-.018-8.146 4.707v.037l8.146 4.707.023-.013zM16.744 4.956v9.194l7.963-4.596zm0 28.674v.03l8.145 4.707.027-.019v-9.401l-.033-.017zm16.318-28.9L25.09.128v9.204zM25.09 57.532l7.972-4.607-7.972-4.6zm0-47.959l8.146 4.704.023-.013V4.843l-.023-.012-8.146 4.703zm16.692 19.236v.039l8.145 4.699.03-.025v-9.389l-.03-.022zM16.568 43.405l-.033-.018-8.139 4.7v.037l8.137 4.701.035-.026zm8.313 4.801L16.744 52.9v.043l8.142 4.707.03-.018v-9.407zm8.55-14.576v.037l8.145 4.7.034-.025v-9.395l-.037-.017zm-25.21 4.956l-.033-.019-8.145 4.707v.031l8.142 4.701.036-.026zm8.523-5.157l7.963-4.602-7.963-4.597zm8.145-14.131l-8.145 4.7v.03l8.139 4.701.033-.02v-9.396zm16.893 19.15v.038l8.148 4.701.027-.014v-9.401l-.03-.024zM25.09 28.609l7.962-4.598-7.962-4.598zM8.188 19.09l.033-.02V9.675l-.036-.022-8.142 4.7v.035zm.033 9.851l-.02-.011-8.158 4.712v.025l8.145 4.7.033-.019zm16.869 9.301l7.962-4.594-7.962-4.601zM41.414 9.554l-7.983-4.609v9.218zm-7.983 14.442v.03l8.142 4.703.037-.022v-9.394l-.034-.021zm-17.072-9.622L8.396 9.775v9.195zm.176-.103l.033-.019V4.855l-.035-.021-8.137 4.697v.044z"/></svg>