<svg xmlns="http://www.w3.org/2000/svg" xmlns:xlink="http://www.w3.org/1999/xlink" width="50" viewBox="0 0 555 555"><defs><path id="a" d="M209.08,17.8402013 C252.966,-5.94673376 307.036,-5.94673376 350.922,17.8402013 L484.08,90.0142512 C527.966,113.801186 555,157.754897 555,205.330646 L555,349.671233 C555,397.245103 527.964,441.203509 484.078,464.990444 L350.92,537.159799 C307.034,560.946734 252.964,560.946734 209.078,537.159799 L102.151,479.207199 C101.163,478.671923 78.256,465.487218 56.41,447.947054 C55.6992393,447.694616 55.0302332,447.348715 54.423,446.919698 C20.392,422.844465 0,385.34694 0,345.160824 L0,206.12323 C0,168.776897 17.608,133.751973 47.405,109.663593 C51.784,102.961368 96.318,78.9556271 100.594,76.6398521 L209.08,17.8439576 L209.08,17.8392622 L209.08,17.8402013 Z"/></defs><g fill="none" fill-rule="evenodd"><mask id="b" fill="#fff"><use xlink:href="#a"/></mask><g mask="url(#b)"><g transform="translate(0 -62)"><path fill="red" fill-rule="nonzero" d="M209.08,79.719762 C252.966,55.9504095 307.036,55.9504095 350.922,79.719762 L484.08,151.840463 C527.966,175.609815 555,219.531037 555,267.07068 L555,411.304575 C555,458.84328 527.964,502.769194 484.078,526.538546 L350.92,598.653616 C307.034,622.422969 252.964,622.422969 209.078,598.653616 L102.15,540.746669 C101.162,540.211789 78.255,527.035891 56.409,509.50963 C55.6982393,509.257379 55.0292332,508.911734 54.422,508.483034 C20.392,484.424658 0,446.95485 0,406.796562 L0,267.863617 C0,230.545828 17.608,195.546794 47.405,171.476219 C51.784,164.778948 96.318,140.790951 100.594,138.476888 L209.08,79.7244539 L209.08,79.719762 Z"/><path stroke="#FFF" stroke-width="65" d="M100.655,658.747944 C99.316,662.684479 135.758,619.2043 138.745,619.498015 C177.015,623.257195 535.983,348.54898 331.743,327.119965 C111.563,304.018745 202.104,169.135881 443.012,0"/></g></g></g></svg>