<svg xmlns="http://www.w3.org/2000/svg" width="36" viewBox="0 0 129.353 14.038"><path fill="#F50103" fill-rule="nonzero" d="m1.05 3.954-.06.317C.495 7.138 2.314 8.107 4.825 8.304l5.18.396c.436.04.673.178.594.573-.08.455-.355.613-.79.613h-4.35c-.436 0-.674-.158-.594-.613H.12l-.04.198c-.475 2.373 1.206 4.37 3.757 4.37h6.17c2.55 0 4.863-1.78 5.2-3.777l.078-.474c.435-2.67-1.325-3.836-3.835-4.034L6.289 5.14c-.436-.038-.673-.157-.594-.612.08-.396.356-.574.791-.574h4.35c.435 0 .673.159.594.613h4.745l.04-.197C16.688 1.997 15.007 0 12.456 0H6.289c-2.57 0-4.884 1.997-5.24 3.955Zm27.897 3.401c-.277 1.523-1.543 2.53-4.212 2.53-2.748 0-3.579-1.007-3.302-2.53L22.738 0h-4.745L16.69 7.355c-.771 4.35 1.047 6.683 7.315 6.683 6.07 0 8.917-2.333 9.689-6.683L34.997 0H30.25l-1.305 7.355Zm15.481-3.4c.435 0 .692.276.613.672-.08.455-.415.711-.85.711h-4.133l.237-1.384h4.133ZM33.81 13.84h10.856c2.472 0 4.706-1.898 5.101-4.172.257-1.444-.276-2.75-1.305-3.5.752-.673 1.285-1.562 1.463-2.53C50.281 1.66 48.937 0 46.742 0h-10.48l-.711 3.954-1.74 9.887Zm5.438-3.955.256-1.384h5.003c.435 0 .673.277.613.672-.08.455-.415.712-.85.712h-5.022ZM52.293 0l-2.452 13.84h4.745l1.483-8.403 5.833 8.404h5.734L70.087 0h-4.745L63.82 8.62 57.829 0h-5.537.001Zm19.038.068L68.883 13.84h16.015l.712-3.955H74.32l.217-1.186h10.48l.632-3.56h-10.7l.25-1.33h11.373l.755-3.742H71.331ZM87.85 0l2.807 13.84h5.358l4.053-7.295 1.483 7.276-.019.02h5.773L114.997 0h-5.754l-4.35 7.79L103.311 0h-4.567L94.55 7.534 93.011 0h-5.162Zm26.258 3.954-.06.317c-.494 2.867 1.325 3.836 3.836 4.033l5.18.396c.436.04.673.178.594.573-.08.455-.356.613-.791.613h-4.35c-.435 0-.672-.158-.593-.613h-4.746l-.039.198c-.475 2.373 1.206 4.37 3.757 4.37h6.169c2.55 0 4.863-1.78 5.2-3.777l.079-.474c.435-2.67-1.325-3.836-3.836-4.034l-5.16-.416c-.435-.038-.673-.157-.594-.612.08-.396.356-.574.791-.574h4.35c.435 0 .672.159.593.613h4.746l.04-.197c.474-2.373-1.207-4.37-3.758-4.37h-6.169c-2.57 0-4.883 1.997-5.239 3.954Z"/></svg>